<svg width="122" height="25" viewBox="0 0 122 25" fill="none" xmlns="http://www.w3.org/2000/svg">
<g clip-path="url(#clip0_11_5822)">
<path d="M3.95658 16.1731C4.05924 16.7459 4.28501 17.2472 4.63399 17.6768C4.98298 18.1065 5.43457 18.4441 5.98881 18.6896C6.56357 18.9146 7.23074 19.0272 7.99025 19.0272C9.18084 19.0272 10.0738 18.7612 10.6691 18.2292C11.2644 17.6768 11.562 17.0119 11.562 16.2345C11.562 15.6207 11.3773 15.1092 11.0078 14.7C10.6383 14.2908 10.1149 13.943 9.43745 13.6566C8.78055 13.3701 8.01077 13.0939 7.12809 12.828C6.307 12.5825 5.49615 12.3165 4.69558 12.0301C3.895 11.7436 3.16627 11.3856 2.50939 10.956C1.85251 10.5263 1.32906 9.97391 0.939033 9.29875C0.569536 8.60315 0.384788 7.73362 0.384788 6.69019C0.384788 5.38081 0.702967 4.26576 1.33932 3.34509C1.9962 2.42443 2.88915 1.72881 4.01817 1.25825C5.14717 0.78768 6.45068 0.5524 7.92867 0.5524C9.18084 0.5524 10.3099 0.736533 11.3157 1.1048C12.3216 1.45261 13.1632 1.97432 13.8406 2.66994C14.5385 3.34509 15.0517 4.18394 15.3802 5.18643L11.5313 6.22986C11.4286 5.77976 11.2028 5.39101 10.8538 5.06368C10.5049 4.73634 10.0841 4.48059 9.5914 4.29645C9.09874 4.09187 8.56501 3.98956 7.99025 3.98956C7.37442 3.96912 6.8099 4.06118 6.29673 4.26576C5.78355 4.47034 5.37299 4.76703 5.06507 5.15574C4.75716 5.54446 4.6032 5.99459 4.6032 6.50606C4.6032 7.0789 4.77767 7.53924 5.12666 7.88706C5.47564 8.2144 5.93751 8.50084 6.51227 8.74635C7.08703 8.97142 7.73364 9.19644 8.45212 9.42151C9.31428 9.66702 10.1764 9.95346 11.0386 10.2808C11.9008 10.5877 12.6911 10.9866 13.4095 11.4777C14.128 11.9482 14.7028 12.5518 15.1338 13.2883C15.5854 14.0249 15.8113 14.9558 15.8113 16.081C15.8113 17.2676 15.5239 18.3418 14.9491 19.3034C14.3949 20.265 13.5532 21.0322 12.4242 21.605C11.2952 22.1779 9.8788 22.4643 8.175 22.4643C6.77911 22.4643 5.50643 22.2597 4.35687 21.8505C3.22786 21.4413 2.29385 20.848 1.55486 20.0706C0.815867 19.2727 0.333469 18.3315 0.107666 17.2472L3.95658 16.1731ZM25.7506 22.4643C24.2521 22.4643 22.9383 22.137 21.8093 21.4823C20.6803 20.8276 19.7976 19.9171 19.1613 18.751C18.5249 17.5643 18.2067 16.1935 18.2067 14.6386C18.2067 13.0633 18.5249 11.6822 19.1613 10.4956C19.7976 9.30899 20.6906 8.37808 21.8401 7.70293C22.9896 7.02777 24.3137 6.69019 25.8122 6.69019C27.4339 6.69019 28.8708 7.08915 30.123 7.88706C31.3957 8.68497 32.2886 9.75909 32.8018 11.1094L29.1377 12.1528C28.8913 11.5595 28.4808 11.089 27.906 10.7411C27.3518 10.3933 26.7154 10.2194 25.997 10.2194C25.2785 10.2194 24.6421 10.4036 24.0879 10.7718C23.5542 11.1401 23.1334 11.6516 22.8254 12.3063C22.538 12.961 22.3944 13.7282 22.3944 14.6079C22.3944 15.9378 22.7228 16.9914 23.3797 17.7689C24.0366 18.5464 24.9193 18.9351 26.0278 18.9351C26.7257 18.9351 27.362 18.7714 27.9368 18.4441C28.5116 18.0962 28.9427 17.6257 29.2301 17.0324L32.8634 18.0758C32.3092 19.4057 31.3854 20.4695 30.0922 21.2674C28.8195 22.0654 27.3723 22.4643 25.7506 22.4643ZM35.8757 0.153442H39.817V8.40877C40.2892 7.8973 40.8743 7.4881 41.5721 7.18121C42.2907 6.85388 43.0912 6.69019 43.9738 6.69019C45.1439 6.69019 46.16 6.94595 47.0221 7.45742C47.9047 7.96888 48.5821 8.71566 49.0544 9.69771C49.5266 10.6593 49.7626 11.8562 49.7626 13.2883V22.2495H45.6057V13.81C45.6057 12.6234 45.3698 11.7334 44.8975 11.1401C44.4253 10.5468 43.7171 10.2501 42.7729 10.2501C41.808 10.2501 41.069 10.5774 40.556 11.2322C40.0633 11.8664 39.817 12.7768 39.817 13.9635V22.2495H35.8757V0.153442ZM60.3359 22.4643C58.7964 22.4643 57.4416 22.1267 56.2715 21.4516C55.1014 20.7764 54.1877 19.8353 53.531 18.6282C52.8944 17.4211 52.5765 16.0299 52.5765 14.4545C52.5765 12.9405 52.8944 11.6004 53.531 10.4342C54.1673 9.26806 55.0498 8.35764 56.1791 7.70293C57.3284 7.02777 58.632 6.69019 60.0896 6.69019C61.5676 6.69019 62.8708 7.00732 64.0001 7.64155C65.129 8.27577 66.0015 9.16575 66.6174 10.3115C67.2536 11.4367 67.5719 12.7564 67.5719 14.2704C67.5719 14.4954 67.5511 14.7511 67.5103 15.0376C67.4895 15.3035 67.4587 15.59 67.4179 15.8969H56.8257C56.9077 16.5516 57.1129 17.1142 57.4415 17.5848C57.7903 18.0349 58.2113 18.3929 58.704 18.6589C59.2171 18.9044 59.7917 19.0272 60.4283 19.0272C61.1877 19.0272 61.8651 18.8737 62.4605 18.5668C63.0764 18.2395 63.5174 17.82 63.7846 17.3086L67.2948 18.352C66.679 19.6614 65.7552 20.6741 64.5236 21.3902C63.3123 22.1063 61.9163 22.4643 60.3359 22.4643ZM63.2611 13.0428C63.2403 12.47 63.0864 11.9584 62.7992 11.5084C62.5117 11.0378 62.1318 10.6798 61.66 10.4342C61.1877 10.1683 60.6642 10.0353 60.0896 10.0353C59.5762 10.0353 59.0939 10.1683 58.6424 10.4342C58.1905 10.7002 57.8007 11.0583 57.4723 11.5084C57.1644 11.938 56.9589 12.4495 56.8565 13.0428H63.2611ZM81.7533 9.20669L81.2606 9.26806V0.153442H85.2019V22.2495H81.6301L81.3838 20.3468C80.8911 20.9196 80.2345 21.4209 79.4131 21.8505C78.6125 22.2597 77.6788 22.4643 76.6111 22.4643C75.2771 22.4643 74.0966 22.137 73.0701 21.4823C72.044 20.8276 71.2434 19.9171 70.6684 18.751C70.0937 17.5643 69.8062 16.1731 69.8062 14.5773C69.8062 12.9814 70.0937 11.5902 70.6684 10.4036C71.2434 9.21693 72.044 8.30646 73.0701 7.67224C74.0966 7.01753 75.2771 6.69019 76.6111 6.69019C77.8223 6.69019 78.8589 6.9357 79.721 7.42673C80.604 7.91775 81.2814 8.51108 81.7533 9.20669ZM74.0554 14.5773C74.0554 15.8662 74.3841 16.9096 75.0407 17.7075C75.6977 18.485 76.5599 18.8737 77.6272 18.8737C78.2842 18.8737 78.8796 18.71 79.4131 18.3827C79.9673 18.0349 80.4088 17.5438 80.7371 16.9096C81.0862 16.2754 81.2606 15.4979 81.2606 14.5773C81.2606 13.6566 81.0862 12.8791 80.7371 12.2449C80.4088 11.6107 79.9673 11.1298 79.4131 10.8025C78.8796 10.4547 78.2842 10.2808 77.6272 10.2808C76.5599 10.2808 75.6977 10.6798 75.0407 11.4777C74.3841 12.2551 74.0554 13.2883 74.0554 14.5773ZM89.5023 6.90501H93.4436V22.2495H89.5023V6.90501ZM91.5037 4.94092C90.7647 4.94092 90.1589 4.71586 89.687 4.26576C89.2148 3.7952 88.9788 3.22234 88.9788 2.54718C88.9788 1.87202 89.2148 1.30939 89.687 0.859289C90.1589 0.388724 90.7647 0.153442 91.5037 0.153442C92.2015 0.153442 92.7866 0.388724 93.2588 0.859289C93.7515 1.30939 93.9978 1.87202 93.9978 2.54718C93.9978 3.22234 93.7515 3.7952 93.2588 4.26576C92.7866 4.71586 92.2015 4.94092 91.5037 4.94092Z" fill="black"/>
</g>
<path d="M110.188 17.4636C109.859 17.5803 109.526 17.6047 109.304 17.6047C109.082 17.6047 108.75 17.5803 108.42 17.4636L102.653 15.4087L102.051 15.1938C102.051 16.1231 102.051 17.3588 102.051 18.5999C102.051 21.099 105.298 22.2187 109.304 22.2187C113.31 22.2187 116.557 21.099 116.557 18.5999V15.1938L110.188 17.4636Z" fill="#3EBAD0"/>
<path d="M100.917 19.1193C100.917 19.2082 100.909 19.2966 100.891 19.3842C100.874 19.4719 100.848 19.5562 100.813 19.6386C100.78 19.721 100.737 19.7994 100.688 19.8732C100.638 19.9477 100.582 20.0162 100.519 20.0789C100.456 20.1421 100.387 20.1981 100.313 20.2476C100.239 20.2977 100.16 20.3392 100.077 20.3734C99.9955 20.4071 99.9102 20.4334 99.8222 20.4506C99.7349 20.4677 99.6463 20.4763 99.557 20.4763C99.4678 20.4763 99.3792 20.4677 99.2919 20.4506C99.2046 20.4334 99.1193 20.4071 99.0366 20.3734C98.954 20.3392 98.876 20.2977 98.8019 20.2476C98.7272 20.1981 98.6584 20.1421 98.5956 20.0789C98.5321 20.0162 98.4759 19.9477 98.4263 19.8732C98.3767 19.7994 98.3351 19.721 98.3007 19.6386C98.2663 19.5562 98.2405 19.4719 98.2233 19.3842C98.2061 19.2966 98.1975 19.2082 98.1975 19.1193C98.1975 19.0303 98.2061 18.942 98.2233 18.855C98.2405 18.7673 98.2663 18.6823 98.3007 18.5999C98.3351 18.5175 98.3767 18.4398 98.4263 18.3653C98.4759 18.2915 98.5321 18.2229 98.5956 18.1597C98.6584 18.0971 98.7272 18.0404 98.8019 17.991C98.876 17.9415 98.954 17.9 99.0366 17.8657C99.1193 17.8315 99.2046 17.8058 99.2919 17.7886C99.3792 17.7708 99.4678 17.7623 99.557 17.7623C99.6463 17.7623 99.7349 17.7708 99.8222 17.7886C99.9102 17.8058 99.9955 17.8315 100.077 17.8657C100.16 17.9 100.239 17.9415 100.313 17.991C100.387 18.0404 100.456 18.0971 100.519 18.1597C100.582 18.2229 100.638 18.2915 100.688 18.3653C100.737 18.4398 100.78 18.5175 100.813 18.5999C100.848 18.6823 100.874 18.7673 100.891 18.855C100.909 18.942 100.917 19.0303 100.917 19.1193Z" fill="#3EBAD0"/>
<mask id="mask0_11_5822" style="mask-type:luminance" maskUnits="userSpaceOnUse" x="97" y="19" width="5" height="6">
<path d="M97.5376 19.5134H101.6V25H97.5376V19.5134Z" fill="white"/>
</mask>
<g mask="url(#mask0_11_5822)">
<path d="M99.5571 25.0001C99.169 25.0001 98.8086 24.9401 98.5084 24.8617C98.023 24.7371 97.5542 24.3641 97.5542 23.6543C97.5542 22.2722 98.1282 20.5238 99.5571 19.5721C100.986 20.5238 101.56 22.2716 101.56 23.6543C101.56 24.3641 101.091 24.7371 100.607 24.8617C100.306 24.9401 99.9453 25.0001 99.5571 25.0001Z" fill="#3EBAD0"/>
</g>
<mask id="mask1_11_5822" style="mask-type:luminance" maskUnits="userSpaceOnUse" x="96" y="6" width="26" height="13">
<path d="M96.6079 6.90497H122V18.6698H96.6079V6.90497Z" fill="white"/>
</mask>
<g mask="url(#mask1_11_5822)">
<path d="M100.237 18.6672H98.8771V17.243C98.8771 16.1074 98.8824 14.5191 99.9814 13.4949L97.0375 12.445C96.7545 12.3449 96.6104 12.1412 96.6104 11.8407V11.7847C96.6104 11.4855 96.7545 11.2805 97.0375 11.1803L108.725 7.01508C109.14 6.86745 109.469 6.86745 109.883 7.01508L121.571 11.1803C121.853 11.2818 121.997 11.4861 121.997 11.7853V11.8413C121.997 12.1419 121.853 12.3455 121.57 12.4464L109.882 16.6116C109.675 16.6848 109.453 16.7012 109.303 16.7012C109.154 16.7012 108.931 16.6848 108.724 16.6116L102.957 14.5553L109.456 12.2388C109.692 12.1544 109.815 11.8961 109.731 11.6608C109.646 11.4255 109.391 11.3022 109.152 11.3866L101.611 14.0749C100.335 14.5303 100.237 15.6751 100.237 17.243V18.6672Z" fill="#3EBAD0"/>
</g>
<defs>
<clipPath id="clip0_11_5822">
<rect width="112.773" height="22.6331" fill="white"/>
</clipPath>
</defs>
</svg>
