<svg width="26" height="19" viewBox="0 0 26 19" fill="none" xmlns="http://www.w3.org/2000/svg">
<path d="M14.1882 11.4636C13.8589 11.5803 13.5263 11.6047 13.3041 11.6047C13.0819 11.6047 12.7499 11.5803 12.42 11.4636L6.65252 9.4087L6.05078 9.19385C6.05078 10.1231 6.05078 11.3588 6.05078 12.5999C6.05078 15.099 9.2982 16.2187 13.3041 16.2187C17.3099 16.2187 20.5574 15.099 20.5574 12.5999V9.19385L14.1882 11.4636Z" fill="#101010"/>
<path d="M4.91724 13.1193C4.91724 13.2082 4.90865 13.2966 4.89079 13.3842C4.8736 13.4719 4.84781 13.5562 4.81343 13.6386C4.7797 13.721 4.73738 13.7994 4.68779 13.8732C4.6382 13.9477 4.58199 14.0162 4.51917 14.0789C4.45569 14.1421 4.38692 14.1981 4.31286 14.2476C4.2388 14.2977 4.16011 14.3392 4.07745 14.3734C3.99546 14.4071 3.91016 14.4334 3.82221 14.4506C3.73492 14.4677 3.64632 14.4763 3.55705 14.4763C3.46778 14.4763 3.37917 14.4677 3.29188 14.4506C3.2046 14.4334 3.1193 14.4071 3.03664 14.3734C2.95398 14.3392 2.87596 14.2977 2.8019 14.2476C2.72717 14.1981 2.6584 14.1421 2.59558 14.0789C2.5321 14.0162 2.4759 13.9477 2.4263 13.8732C2.37671 13.7994 2.33505 13.721 2.30067 13.6386C2.26628 13.5562 2.24049 13.4719 2.2233 13.3842C2.20611 13.2966 2.19751 13.2082 2.19751 13.1193C2.19751 13.0303 2.20611 12.942 2.2233 12.855C2.24049 12.7673 2.26628 12.6823 2.30067 12.5999C2.33505 12.5175 2.37671 12.4398 2.4263 12.3653C2.4759 12.2915 2.5321 12.2229 2.59558 12.1597C2.6584 12.0971 2.72717 12.0404 2.8019 11.991C2.87596 11.9415 2.95398 11.9 3.03664 11.8657C3.1193 11.8315 3.2046 11.8058 3.29188 11.7886C3.37917 11.7708 3.46778 11.7623 3.55705 11.7623C3.64632 11.7623 3.73492 11.7708 3.82221 11.7886C3.91016 11.8058 3.99546 11.8315 4.07745 11.8657C4.16011 11.9 4.2388 11.9415 4.31286 11.991C4.38692 12.0404 4.45569 12.0971 4.51917 12.1597C4.58199 12.2229 4.6382 12.2915 4.68779 12.3653C4.73738 12.4398 4.7797 12.5175 4.81343 12.5999C4.84781 12.6823 4.8736 12.7673 4.89079 12.855C4.90865 12.942 4.91724 13.0303 4.91724 13.1193Z" fill="#101010"/>
<mask id="mask0_587_9" style="mask-type:luminance" maskUnits="userSpaceOnUse" x="1" y="13" width="5" height="6">
<path d="M1.5376 13.5134H5.60033V19H1.5376V13.5134Z" fill="white"/>
</mask>
<g mask="url(#mask0_587_9)">
<path d="M3.55714 19.0001C3.16898 19.0001 2.8086 18.9401 2.50839 18.8617C2.02303 18.7371 1.5542 18.3641 1.5542 17.6543C1.5542 16.2722 2.12817 14.5238 3.55714 13.5721C4.98611 14.5238 5.56007 16.2716 5.56007 17.6543C5.56007 18.3641 5.09058 18.7371 4.60655 18.8617C4.30634 18.9401 3.94529 19.0001 3.55714 19.0001Z" fill="#101010"/>
</g>
<mask id="mask1_587_9" style="mask-type:luminance" maskUnits="userSpaceOnUse" x="0" y="0" width="26" height="13">
<path d="M0.60791 0.904968H26V12.6698H0.60791V0.904968Z" fill="white"/>
</mask>
<g mask="url(#mask1_587_9)">
<path d="M4.23733 12.6672H2.87713V11.243C2.87713 10.1074 2.88242 8.5191 3.98142 7.49492L1.03752 6.44504C0.754505 6.34487 0.610352 6.14122 0.610352 5.84069V5.78467C0.610352 5.48546 0.754505 5.28049 1.03752 5.18032L12.7252 1.01508C13.1398 0.867451 13.4691 0.867451 13.883 1.01508L25.5713 5.18032C25.853 5.28181 25.9972 5.48612 25.9972 5.78533V5.84135C25.9972 6.14188 25.853 6.34553 25.57 6.44636L13.8824 10.6116C13.6747 10.6848 13.4526 10.7012 13.3031 10.7012C13.1537 10.7012 12.9315 10.6848 12.7239 10.6116L6.95706 8.55534L13.4559 6.23876C13.6919 6.1544 13.8149 5.89605 13.7309 5.66077C13.6463 5.42548 13.3911 5.30224 13.1523 5.3866L5.61075 8.07489C4.33519 8.5303 4.23733 9.67508 4.23733 11.243V12.6672Z" fill="#101010"/>
</g>
</svg>
