<svg width="51" height="51" viewBox="0 0 51 51" fill="none" xmlns="http://www.w3.org/2000/svg">
<rect width="51" height="50.5" rx="25.25" fill="#F7F7F7"/>
<path d="M26.5791 27.3373C26.177 27.4791 25.771 27.5087 25.4997 27.5087C25.2285 27.5087 24.8232 27.4791 24.4204 27.3373L17.3792 24.8389L16.6445 24.5776C16.6445 25.7074 16.6445 27.2098 16.6445 28.7187C16.6445 31.7571 20.6091 33.1185 25.4997 33.1185C30.3903 33.1185 34.3549 31.7571 34.3549 28.7187V24.5776L26.5791 27.3373Z" fill="#3EBAD0"/>
<path d="M15.2608 29.3503C15.2608 29.4585 15.2503 29.5658 15.2285 29.6724C15.2075 29.779 15.1761 29.8815 15.1341 29.9817C15.0929 30.0818 15.0412 30.1772 14.9807 30.2669C14.9201 30.3575 14.8515 30.4408 14.7748 30.5169C14.6973 30.5939 14.6134 30.662 14.523 30.7221C14.4325 30.783 14.3365 30.8335 14.2356 30.8751C14.1355 30.916 14.0313 30.948 13.9239 30.9689C13.8174 30.9897 13.7092 31.0001 13.6002 31.0001C13.4912 31.0001 13.3831 30.9897 13.2765 30.9689C13.1699 30.948 13.0658 30.916 12.9649 30.8751C12.864 30.8335 12.7687 30.783 12.6783 30.7221C12.5871 30.662 12.5031 30.5939 12.4264 30.5169C12.3489 30.4408 12.2803 30.3575 12.2198 30.2669C12.1592 30.1772 12.1083 30.0818 12.0664 29.9817C12.0244 29.8815 11.9929 29.779 11.9719 29.6724C11.9509 29.5658 11.9404 29.4585 11.9404 29.3503C11.9404 29.2421 11.9509 29.1347 11.9719 29.029C11.9929 28.9224 12.0244 28.819 12.0664 28.7189C12.1083 28.6187 12.1592 28.5242 12.2198 28.4336C12.2803 28.3439 12.3489 28.2605 12.4264 28.1836C12.5031 28.1075 12.5871 28.0386 12.6783 27.9785C12.7687 27.9184 12.864 27.8679 12.9649 27.8262C13.0658 27.7846 13.1699 27.7533 13.2765 27.7325C13.3831 27.7109 13.4912 27.7004 13.6002 27.7004C13.7092 27.7004 13.8174 27.7109 13.9239 27.7325C14.0313 27.7533 14.1355 27.7846 14.2356 27.8262C14.3365 27.8679 14.4325 27.9184 14.523 27.9785C14.6134 28.0386 14.6973 28.1075 14.7748 28.1836C14.8515 28.2605 14.9201 28.3439 14.9807 28.4336C15.0412 28.5242 15.0929 28.6187 15.1341 28.7189C15.1761 28.819 15.2075 28.9224 15.2285 29.029C15.2503 29.1347 15.2608 29.2421 15.2608 29.3503Z" fill="#3EBAD0"/>
<mask id="mask0_720_4091" style="mask-type:luminance" maskUnits="userSpaceOnUse" x="11" y="29" width="6" height="8">
<path d="M11.1348 29.8293H16.0948V36.5H11.1348V29.8293Z" fill="white"/>
</mask>
<g mask="url(#mask0_720_4091)">
<path d="M13.6006 36.5C13.1267 36.5 12.6867 36.4271 12.3202 36.3317C11.7276 36.1803 11.1553 35.7268 11.1553 34.8638C11.1553 33.1835 11.856 31.0577 13.6006 29.9006C15.3451 31.0577 16.0458 33.1827 16.0458 34.8638C16.0458 35.7268 15.4727 36.1803 14.8817 36.3317C14.5152 36.4271 14.0744 36.5 13.6006 36.5Z" fill="#3EBAD0"/>
</g>
<mask id="mask1_720_4091" style="mask-type:luminance" maskUnits="userSpaceOnUse" x="10" y="14" width="31" height="15">
<path d="M10 14.5H41V28.8037H10V14.5Z" fill="white"/>
</mask>
<g mask="url(#mask1_720_4091)">
<path d="M14.4309 28.8006H12.7703V27.069C12.7703 25.6884 12.7768 23.7573 14.1185 22.5121L10.5244 21.2356C10.1789 21.1139 10.0029 20.8663 10.0029 20.5009V20.4328C10.0029 20.069 10.1789 19.8198 10.5244 19.698L24.7933 14.6339C25.2995 14.4544 25.7015 14.4544 26.2069 14.6339L40.4766 19.698C40.8205 19.8214 40.9965 20.0698 40.9965 20.4336V20.5017C40.9965 20.8671 40.8205 21.1147 40.475 21.2373L26.2061 26.3014C25.9526 26.3903 25.6813 26.4103 25.4989 26.4103C25.3164 26.4103 25.0452 26.3903 24.7917 26.3014L17.7513 23.8014L25.6854 20.9848C25.9736 20.8823 26.1237 20.5682 26.0212 20.2821C25.9179 19.9961 25.6063 19.8462 25.3148 19.9488L16.1077 23.2172C14.5504 23.7709 14.4309 25.1627 14.4309 27.069V28.8006Z" fill="#3EBAD0"/>
</g>
</svg>
