<svg width="51" height="51" viewBox="0 0 51 51" fill="none" xmlns="http://www.w3.org/2000/svg">
<rect y="0.25" width="51" height="50.5" rx="25.25" fill="white"/>
<path d="M26.5796 27.5873C26.1775 27.7291 25.7715 27.7587 25.5002 27.7587C25.229 27.7587 24.8237 27.7291 24.4209 27.5873L17.3797 25.0889L16.645 24.8276C16.645 25.9574 16.645 27.4598 16.645 28.9687C16.645 32.0071 20.6096 33.3685 25.5002 33.3685C30.3908 33.3685 34.3554 32.0071 34.3554 28.9687V24.8276L26.5796 27.5873Z" fill="#3EBAD0"/>
<path d="M15.2613 29.6002C15.2613 29.7084 15.2508 29.8158 15.229 29.9223C15.208 30.0289 15.1765 30.1315 15.1346 30.2316C15.0934 30.3318 15.0417 30.4271 14.9812 30.5169C14.9206 30.6074 14.852 30.6908 14.7753 30.7669C14.6978 30.8438 14.6139 30.9119 14.5234 30.972C14.433 31.0329 14.337 31.0834 14.236 31.1251C14.1359 31.1659 14.0318 31.198 13.9244 31.2188C13.8179 31.2396 13.7097 31.2501 13.6007 31.2501C13.4917 31.2501 13.3835 31.2396 13.277 31.2188C13.1704 31.198 13.0663 31.1659 12.9654 31.1251C12.8645 31.0834 12.7692 31.0329 12.6788 30.972C12.5876 30.9119 12.5036 30.8438 12.4269 30.7669C12.3494 30.6908 12.2808 30.6074 12.2202 30.5169C12.1597 30.4271 12.1088 30.3318 12.0669 30.2316C12.0249 30.1315 11.9934 30.0289 11.9724 29.9223C11.9514 29.8158 11.9409 29.7084 11.9409 29.6002C11.9409 29.492 11.9514 29.3847 11.9724 29.2789C11.9934 29.1723 12.0249 29.069 12.0669 28.9688C12.1088 28.8686 12.1597 28.7741 12.2202 28.6836C12.2808 28.5938 12.3494 28.5105 12.4269 28.4336C12.5036 28.3574 12.5876 28.2885 12.6788 28.2284C12.7692 28.1683 12.8645 28.1178 12.9654 28.0762C13.0663 28.0345 13.1704 28.0033 13.277 27.9824C13.3835 27.9608 13.4917 27.9504 13.6007 27.9504C13.7097 27.9504 13.8179 27.9608 13.9244 27.9824C14.0318 28.0033 14.1359 28.0345 14.236 28.0762C14.337 28.1178 14.433 28.1683 14.5234 28.2284C14.6139 28.2885 14.6978 28.3574 14.7753 28.4336C14.852 28.5105 14.9206 28.5938 14.9812 28.6836C15.0417 28.7741 15.0934 28.8686 15.1346 28.9688C15.1765 29.069 15.208 29.1723 15.229 29.2789C15.2508 29.3847 15.2613 29.492 15.2613 29.6002Z" fill="#3EBAD0"/>
<mask id="mask0_588_9773" style="mask-type:luminance" maskUnits="userSpaceOnUse" x="11" y="30" width="6" height="7">
<path d="M11.1353 30.0793H16.0952V36.75H11.1353V30.0793Z" fill="white"/>
</mask>
<g mask="url(#mask0_588_9773)">
<path d="M13.6006 36.7501C13.1267 36.7501 12.6867 36.6771 12.3202 36.5818C11.7276 36.4303 11.1553 35.9768 11.1553 35.1138C11.1553 33.4335 11.856 31.3077 13.6006 30.1507C15.3451 31.3077 16.0458 33.4327 16.0458 35.1138C16.0458 35.9768 15.4727 36.4303 14.8817 36.5818C14.5152 36.6771 14.0744 36.7501 13.6006 36.7501Z" fill="#3EBAD0"/>
</g>
<mask id="mask1_588_9773" style="mask-type:luminance" maskUnits="userSpaceOnUse" x="10" y="14" width="31" height="16">
<path d="M10 14.75H41V29.0537H10V14.75Z" fill="white"/>
</mask>
<g mask="url(#mask1_588_9773)">
<path d="M14.4309 29.0505H12.7703V27.3189C12.7703 25.9383 12.7768 24.0072 14.1185 22.762L10.5244 21.4856C10.1789 21.3638 10.0029 21.1162 10.0029 20.7508V20.6827C10.0029 20.3189 10.1789 20.0697 10.5244 19.9479L24.7933 14.8838C25.2995 14.7043 25.7015 14.7043 26.2069 14.8838L40.4766 19.9479C40.8205 20.0713 40.9965 20.3197 40.9965 20.6835V20.7516C40.9965 21.117 40.8205 21.3646 40.475 21.4872L26.2061 26.5513C25.9526 26.6402 25.6813 26.6603 25.4989 26.6603C25.3164 26.6603 25.0452 26.6402 24.7917 26.5513L17.7513 24.0513L25.6854 21.2348C25.9736 21.1322 26.1237 20.8181 26.0212 20.5321C25.9179 20.246 25.6063 20.0962 25.3148 20.1987L16.1077 23.4672C14.5504 24.0208 14.4309 25.4127 14.4309 27.3189V29.0505Z" fill="#3EBAD0"/>
</g>
</svg>
